<svg width="18" height="18" viewBox="0 0 18 18" fill="none" xmlns="http://www.w3.org/2000/svg">
<path fill-rule="evenodd" clip-rule="evenodd" d="M15.5558 17.5C16.625 17.5 17.5 16.625 17.5 15.5558V1.94425C17.5 0.875 16.625 0 15.5558 0H1.94425C0.875 0 0 0.875 0 1.94425V15.5558C0 16.625 0.875 17.5 1.94425 17.5H15.5558ZM12.4623 12.4623C13.4469 11.4777 14 10.1424 14 8.75C14 8.45075 13.9685 8.1585 13.9143 7.875H15.75V14.8698C15.75 15.1029 15.6575 15.3265 15.4928 15.4916C15.3281 15.6566 15.1047 15.7495 14.8715 15.75H2.63025C2.14375 15.75 1.75 15.3563 1.75 14.8698V7.875H3.58575C3.5315 8.1585 3.5 8.45075 3.5 8.75C3.5 10.1424 4.05312 11.4777 5.03769 12.4623C6.02226 13.4469 7.35761 14 8.75 14C10.1424 14 11.4777 13.4469 12.4623 12.4623ZM10.0897 11.9832C9.66496 12.1592 9.20974 12.2499 8.75 12.25C7.82151 12.2502 6.93096 11.8816 6.27425 11.2252C5.61755 10.5689 5.24848 9.67849 5.24825 8.75C5.24802 7.82151 5.61664 6.93096 6.27302 6.27425C6.92939 5.61755 7.81976 5.24848 8.74825 5.24825C9.20799 5.24814 9.66326 5.33858 10.088 5.5144C10.5128 5.69023 10.8988 5.94801 11.224 6.27302C11.5492 6.59802 11.8071 6.98389 11.9832 7.40859C12.1592 7.83329 12.2499 8.28851 12.25 8.74825C12.2501 9.20799 12.1597 9.66326 11.9839 10.088C11.808 10.5128 11.5502 10.8988 11.2252 11.224C10.9002 11.5492 10.5144 11.8071 10.0897 11.9832ZM15.0483 5.075H12.95C12.6613 5.075 12.425 4.83875 12.4233 4.55V2.45175C12.4233 2.31205 12.4787 2.17807 12.5775 2.07928C12.6763 1.9805 12.8103 1.925 12.95 1.925H15.0483C15.188 1.925 15.3219 1.9805 15.4207 2.07928C15.5195 2.17807 15.575 2.31205 15.575 2.45175V4.55C15.5745 4.6894 15.5188 4.82293 15.4201 4.92134C15.3214 5.01974 15.1877 5.075 15.0483 5.075Z" fill="#F53838"/>
</svg>
