<svg width="17" height="14" viewBox="0 0 17 14" fill="none" xmlns="http://www.w3.org/2000/svg">
<path d="M14.4848 3.69535C14.4848 3.55535 14.483 3.41185 14.476 3.26835C15.1237 2.80012 15.6826 2.21992 16.1263 1.5551C15.5223 1.82299 14.8817 1.99934 14.2258 2.07835C14.9164 1.66391 15.4332 1.01284 15.68 0.246101C15.0307 0.631197 14.3205 0.902834 13.58 1.04935C13.0819 0.516522 12.4217 0.163187 11.7021 0.0442763C10.9824 -0.0746341 10.2437 0.047543 9.60063 0.391813C8.95759 0.736084 8.44631 1.28316 8.14627 1.94798C7.84623 2.61281 7.77424 3.35814 7.9415 4.0681C6.62589 4.00101 5.33904 3.65838 4.16425 3.0624C2.98946 2.46641 1.95292 1.63035 1.12175 0.608351C0.69659 1.33679 0.565782 2.20014 0.756079 3.02183C0.946375 3.84352 1.4434 4.56148 2.1455 5.02885C1.603 5.01135 1.092 4.86085 0.64575 4.6141V4.65435C0.645938 5.41843 0.910382 6.15892 1.39424 6.75027C1.8781 7.34161 2.55159 7.74741 3.3005 7.89885C2.81374 8.03108 2.30327 8.05083 1.80775 7.9566C2.01994 8.6133 2.43172 9.18744 2.98569 9.59901C3.53967 10.0106 4.20826 10.2391 4.89825 10.2526C3.766 11.1416 2.33975 11.6684 0.78925 11.6684C0.5215 11.6684 0.25725 11.6561 0 11.6246C1.51194 12.5986 3.27302 13.1151 5.0715 13.1121C11.158 13.1121 14.4848 8.07035 14.4848 3.69535Z" fill="#F53838"/>
</svg>
